<svg id="Layer_1" data-name="Layer 1" xmlns="http://www.w3.org/2000/svg" viewBox="0 0 22.65 36.89"><title>tumblr-icon-black</title><path d="M-54,143.33v9.31h8.72v5.82H-54c0,0.13,0,.23,0,0.33,0,3.5,0,7,0,10.49a17.84,17.84,0,0,0,.19,2.24,2.61,2.61,0,0,0,1.29,1.9,5.49,5.49,0,0,0,3.36.78,10.17,10.17,0,0,0,4.82-1.63l0.28-.16v0.31c0,1.74,0,3.48,0,5.21a0.38,0.38,0,0,1-.26.41A18.79,18.79,0,0,1-49.89,180a15.38,15.38,0,0,1-8-.83,8.92,8.92,0,0,1-3.27-2.36,5.72,5.72,0,0,1-1.41-3.41c-0.08-1-.12-2-0.12-3,0-3.85,0-7.69,0-11.54,0-.12,0-0.24,0-0.4h-4v-0.31c0-1.56,0-3.13,0-4.69a0.32,0.32,0,0,1,.26-0.37,10.21,10.21,0,0,0,6.91-8c0.12-.57.21-1.15,0.31-1.74H-54Z" transform="translate(66.72 -143.33)"/></svg>