<svg id="Layer_1" data-name="Layer 1" xmlns="http://www.w3.org/2000/svg" viewBox="0 0 116.39 8.69"><defs><style>.cls-1{fill:#231f20;}</style></defs><title>name-bold</title><path class="cls-1" d="M70.52,86.51L74.22,78h1.37l3.7,8.46H77.72l-0.85-2h-4l-0.86,2H70.52Zm2.92-3.34h2.89l-1.45-3.36Z" transform="translate(-70.52 -77.97)"/><path class="cls-1" d="M83.1,86.51v-8.4h1.48v7.06H89v1.34H83.1Z" transform="translate(-70.52 -77.97)"/><path class="cls-1" d="M92.9,86.51v-8.4h6.23v1.32H94.38v2.18h4.21v1.32H94.38v2.26h4.81v1.32H92.9Z" transform="translate(-70.52 -77.97)"/><path class="cls-1" d="M108.73,78.11h1.69l-2.93,4.1,3,4.3H108.8l-2.22-3.2-2.21,3.2h-1.69l3-4.27-2.92-4.13h1.74l2.09,3Z" transform="translate(-70.52 -77.97)"/><path class="cls-1" d="M116.85,86.51v-8.4h3.31a3.38,3.38,0,0,1,2.33.77,2.6,2.6,0,0,1,.86,2v0a2.54,2.54,0,0,1-1,2.11,3.75,3.75,0,0,1-2.41.76h-1.67v2.7h-1.48Zm1.48-4H120a2,2,0,0,0,1.32-.42,1.35,1.35,0,0,0,.49-1.08v0a1.34,1.34,0,0,0-.49-1.11,2.06,2.06,0,0,0-1.33-.39h-1.72v3Z" transform="translate(-70.52 -77.97)"/><path class="cls-1" d="M125.69,86.51l3.7-8.46h1.37l3.7,8.46h-1.56l-0.85-2h-4l-0.86,2h-1.51Zm2.92-3.34h2.89L130,79.81Z" transform="translate(-70.52 -77.97)"/><path class="cls-1" d="M141.63,86.65a4.1,4.1,0,0,1-3-1.25,4.22,4.22,0,0,1-1.22-3.07v0a4.26,4.26,0,0,1,1.22-3.08A4.15,4.15,0,0,1,141.69,78a4.59,4.59,0,0,1,1.85.34,5,5,0,0,1,1.43,1L144,80.37a3.44,3.44,0,0,0-2.35-1,2.58,2.58,0,0,0-2,.86,3,3,0,0,0-.79,2.11v0a3,3,0,0,0,.79,2.11,2.58,2.58,0,0,0,2,.86A2.89,2.89,0,0,0,143,85a4.66,4.66,0,0,0,1.13-.82l0.95,1a5,5,0,0,1-1.5,1.12A4.47,4.47,0,0,1,141.63,86.65Z" transform="translate(-70.52 -77.97)"/><path class="cls-1" d="M149,86.51v-8.4h1.48V81.6h4V78.11h1.48v8.4h-1.48V83h-4v3.54H149Z" transform="translate(-70.52 -77.97)"/><path class="cls-1" d="M160.54,86.51v-8.4H162v8.4h-1.48Z" transform="translate(-70.52 -77.97)"/><path class="cls-1" d="M166.64,86.51v-8.4H168l4.5,5.81V78.11H174v8.4h-1.24l-4.63-6v6h-1.45Z" transform="translate(-70.52 -77.97)"/><path class="cls-1" d="M185.66,85.38a4.38,4.38,0,0,1-7.54-3v0a4.39,4.39,0,1,1,8.78,0v0A4.23,4.23,0,0,1,185.66,85.38Zm-5.18-1a2.85,2.85,0,0,0,4.08,0,3,3,0,0,0,.8-2.1v0a3,3,0,0,0-.81-2.12,2.84,2.84,0,0,0-4.08,0,3,3,0,0,0-.8,2.11v0A3,3,0,0,0,180.48,84.42Z" transform="translate(-70.52 -77.97)"/></svg>