<svg id="Layer_1" data-name="Layer 1" xmlns="http://www.w3.org/2000/svg" viewBox="0 0 111.6 8.7"><defs><style>.cls-1{fill:#231f20;}</style></defs><title>name</title><path class="cls-1" d="M74.1,125.9l3.8-8.5h0.9l3.8,8.5h-1l-1-2.2H76.1l-1,2.2h-1Zm2.3-3.1h3.8l-1.9-4.3Z" transform="translate(-74.1 -117.4)"/><path class="cls-1" d="M86.1,125.9v-8.4H87v7.5h4.7v0.9H86.1Z" transform="translate(-74.1 -117.4)"/><path class="cls-1" d="M95.3,125.9v-8.4h6.1v0.9H96.3v2.9h4.6v0.9H96.3v2.9h5.2v0.9H95.3Z" transform="translate(-74.1 -117.4)"/><path class="cls-1" d="M110.9,117.5H112l-3.1,4.1,3.2,4.3H111l-2.7-3.6-2.7,3.6h-1.1l3.2-4.3-3.1-4.1h1.1l2.6,3.5Z" transform="translate(-74.1 -117.4)"/><path class="cls-1" d="M119.6,125.9v-8.4h3.1a3.5,3.5,0,0,1,2.3.7,2.4,2.4,0,0,1,.9,2h0a2.4,2.4,0,0,1-.9,2,3.8,3.8,0,0,1-2.4.7h-2v3h-0.9Zm0.9-3.8h2.1a2.6,2.6,0,0,0,1.7-.5,1.6,1.6,0,0,0,.6-1.3h0a1.6,1.6,0,0,0-.6-1.3,2.6,2.6,0,0,0-1.7-.5h-2.1v3.7Z" transform="translate(-74.1 -117.4)"/><path class="cls-1" d="M127.9,125.9l3.8-8.5h0.9l3.8,8.5h-1l-1-2.2h-4.6l-1,2.2h-1Zm2.3-3.1H134l-1.9-4.3Z" transform="translate(-74.1 -117.4)"/><path class="cls-1" d="M143.2,126.1a4,4,0,0,1-3-1.2,4.3,4.3,0,0,1-1.2-3.1h0a4.3,4.3,0,0,1,1.2-3.1,4,4,0,0,1,3-1.3,4.5,4.5,0,0,1,1.8.3,5.2,5.2,0,0,1,1.5,1l-0.6.7a3.8,3.8,0,0,0-2.6-1.2,3,3,0,0,0-2.3,1,3.5,3.5,0,0,0-.9,2.4h0a3.5,3.5,0,0,0,.9,2.5,3,3,0,0,0,2.3,1,3.3,3.3,0,0,0,1.4-.3l1.3-.9,0.6,0.6a5.4,5.4,0,0,1-1.5,1.1A4.3,4.3,0,0,1,143.2,126.1Z" transform="translate(-74.1 -117.4)"/><path class="cls-1" d="M150,125.9v-8.4H151v3.7h4.8v-3.7h0.9v8.4h-0.9v-3.8H151v3.8H150Z" transform="translate(-74.1 -117.4)"/><path class="cls-1" d="M161,125.9v-8.4H162v8.4H161Z" transform="translate(-74.1 -117.4)"/><path class="cls-1" d="M166.3,125.9v-8.4h0.9l5.3,6.7v-6.7h0.9v8.4h-0.8l-5.4-6.9v6.9h-0.9Z" transform="translate(-74.1 -117.4)"/><path class="cls-1" d="M184.5,124.8a4.4,4.4,0,0,1-6.2,0,4.3,4.3,0,0,1-1.2-3.1h0a4.3,4.3,0,0,1,1.2-3.1,4.4,4.4,0,0,1,6.2,0,4.3,4.3,0,0,1,1.2,3.1h0A4.3,4.3,0,0,1,184.5,124.8Zm-5.4-.6a3.3,3.3,0,0,0,4.7,0,3.5,3.5,0,0,0,.9-2.4h0a3.5,3.5,0,0,0-.9-2.5,3.3,3.3,0,0,0-4.7,0,3.5,3.5,0,0,0-.9,2.4h0A3.5,3.5,0,0,0,179.1,124.2Z" transform="translate(-74.1 -117.4)"/></svg>