<svg id="Layer_1" data-name="Layer 1" xmlns="http://www.w3.org/2000/svg" viewBox="0 0 115.4 9.2"><defs><style>.cls-1{fill:#231f20;stroke:#fff;stroke-miterlimit:10;stroke-width:0.5px;}</style></defs><title>name-extra</title><path class="cls-1" d="M71.5,106.1l3.6-8.5h2.2l3.6,8.5H78.4l-0.6-1.5H74.6L74,106.1H71.5Zm3.7-3.3h1.9l-0.9-2.4Z" transform="translate(-71.2 -97.3)"/><path class="cls-1" d="M83.9,106.1V97.7h2.3v6.4h4.1v2H83.9Z" transform="translate(-71.2 -97.3)"/><path class="cls-1" d="M93.5,106.1V97.7h6.8v2H95.8V101h4v1.8h-4v1.3h4.5v2H93.5Z" transform="translate(-71.2 -97.3)"/><path class="cls-1" d="M103.1,106.1l2.9-4.3-2.8-4.1h2.7l1.5,2.4,1.5-2.4h2.6l-2.8,4.1,2.9,4.3H109l-1.6-2.5-1.6,2.5h-2.6Z" transform="translate(-71.2 -97.3)"/><path class="cls-1" d="M116.9,106.1V97.7h3.6a3.9,3.9,0,0,1,2.6.8,2.7,2.7,0,0,1,.9,2.2h0a2.7,2.7,0,0,1-1,2.2,4.1,4.1,0,0,1-2.6.8h-1.2v2.4h-2.3Zm2.3-4.2h1.1a1.5,1.5,0,0,0,1-.3,1,1,0,0,0,.4-0.8h0a1,1,0,0,0-.4-0.8,1.6,1.6,0,0,0-1-.3h-1.1v2.2Z" transform="translate(-71.2 -97.3)"/><path class="cls-1" d="M125.7,106.1l3.6-8.5h2.2l3.6,8.5h-2.5l-0.6-1.5h-3.2l-0.6,1.5h-2.4Zm3.7-3.3h1.9l-0.9-2.4Z" transform="translate(-71.2 -97.3)"/><path class="cls-1" d="M141.6,106.3a4.3,4.3,0,0,1-4.3-4.3h0a4.2,4.2,0,0,1,1.3-3.1,4.3,4.3,0,0,1,3.2-1.3,4.1,4.1,0,0,1,3.6,1.8l-1.8,1.4a2.3,2.3,0,0,0-1.8-1,1.8,1.8,0,0,0-1.4.6,2.3,2.3,0,0,0-.6,1.6h0a2.3,2.3,0,0,0,.6,1.6,1.8,1.8,0,0,0,1.4.6,2,2,0,0,0,1-.3l0.9-.8,1.8,1.2a4.9,4.9,0,0,1-1.5,1.4A4.4,4.4,0,0,1,141.6,106.3Z" transform="translate(-71.2 -97.3)"/><path class="cls-1" d="M148.5,106.1V97.7h2.3v3.1h3V97.7h2.3v8.4h-2.3v-3.2h-3v3.2h-2.3Z" transform="translate(-71.2 -97.3)"/><path class="cls-1" d="M159.9,106.1V97.7h2.3v8.4h-2.3Z" transform="translate(-71.2 -97.3)"/><path class="cls-1" d="M165.9,106.1V97.7h2.2l3.5,4.4V97.7h2.3v8.4h-2l-3.6-4.6v4.6h-2.3Z" transform="translate(-71.2 -97.3)"/><path class="cls-1" d="M185,105a4.7,4.7,0,0,1-6.5,0,4.1,4.1,0,0,1-1.3-3.1h0a4.2,4.2,0,0,1,1.3-3.1,4.7,4.7,0,0,1,6.5,0,4.1,4.1,0,0,1,1.3,3.1h0A4.2,4.2,0,0,1,185,105Zm-4.8-1.5a2.1,2.1,0,0,0,3.1,0,2.3,2.3,0,0,0,.6-1.6h0a2.3,2.3,0,0,0-.6-1.6,2,2,0,0,0-1.5-.7,2,2,0,0,0-1.5.7,2.3,2.3,0,0,0-.6,1.6h0A2.3,2.3,0,0,0,180.3,103.5Z" transform="translate(-71.2 -97.3)"/></svg>